<svg xmlns="http://www.w3.org/2000/svg" xmlns:xlink="http://www.w3.org/1999/xlink" contentStyleType="text/css" data-diagram-type="DESCRIPTION" height="289px" preserveAspectRatio="none" style="width:273px;height:289px;background:#FFFFFF;" version="1.1" viewBox="0 0 273 289" width="273px" zoomAndPan="magnify"><defs/><g><!--cluster Main Process--><g id="cluster_Main Process"><path d="M17.5,6 L122.7617,6 A3.75,3.75 0 0 1 125.2617,8.5 L132.2617,28.2969 L254.5,28.2969 A2.5,2.5 0 0 1 257,30.7969 L257,117.1 A2.5,2.5 0 0 1 254.5,119.6 L17.5,119.6 A2.5,2.5 0 0 1 15,117.1 L15,8.5 A2.5,2.5 0 0 1 17.5,6 " fill="none" style="stroke:#000000;stroke-width:1.5;"/><line style="stroke:#000000;stroke-width:1.5;" x1="15" x2="132.2617" y1="28.2969" y2="28.2969"/><text fill="#000000" font-family="sans-serif" font-size="14" font-weight="bold" lengthAdjust="spacing" textLength="104.2617" x="19" y="20.9951">Main Process</text></g><!--cluster Child Process--><g id="cluster_Child Process"><path d="M8.5,168.6 L115.4775,168.6 A3.75,3.75 0 0 1 117.9775,171.1 L124.9775,190.8969 L263.5,190.8969 A2.5,2.5 0 0 1 266,193.3969 L266,279.69 A2.5,2.5 0 0 1 263.5,282.19 L8.5,282.19 A2.5,2.5 0 0 1 6,279.69 L6,171.1 A2.5,2.5 0 0 1 8.5,168.6 " fill="none" style="stroke:#000000;stroke-width:1.5;"/><line style="stroke:#000000;stroke-width:1.5;" x1="6" x2="124.9775" y1="190.8969" y2="190.8969"/><text fill="#000000" font-family="sans-serif" font-size="14" font-weight="bold" lengthAdjust="spacing" textLength="105.9775" x="10" y="183.5951">Child Process</text></g><!--entity tivis_statistical_analyzer--><g id="elem_tivis_statistical_analyzer"><rect fill="#F1F1F1" height="62.5938" rx="2.5" ry="2.5" style="stroke:#181818;stroke-width:0.5;" width="210.3516" x="30.82" y="41"/><rect fill="#F1F1F1" height="10" style="stroke:#181818;stroke-width:0.5;" width="15" x="221.1716" y="46"/><rect fill="#F1F1F1" height="2" style="stroke:#181818;stroke-width:0.5;" width="4" x="219.1716" y="48"/><rect fill="#F1F1F1" height="2" style="stroke:#181818;stroke-width:0.5;" width="4" x="219.1716" y="52"/><text fill="#000000" font-family="sans-serif" font-size="14" font-style="italic" lengthAdjust="spacing" textLength="71.2373" x="95.3771" y="73.9951">&#171;process&#187;</text><text fill="#000000" font-family="sans-serif" font-size="14" lengthAdjust="spacing" textLength="170.3516" x="45.82" y="90.292">tivis_statistical_analyzer</text></g><!--entity tivis_data_sync_server.exe--><g id="elem_tivis_data_sync_server.exe"><rect fill="#F1F1F1" height="62.5938" rx="2.5" ry="2.5" style="stroke:#181818;stroke-width:0.5;" width="227.8105" x="22.09" y="203.6"/><rect fill="#F1F1F1" height="10" style="stroke:#181818;stroke-width:0.5;" width="15" x="229.9005" y="208.6"/><rect fill="#F1F1F1" height="2" style="stroke:#181818;stroke-width:0.5;" width="4" x="227.9005" y="210.6"/><rect fill="#F1F1F1" height="2" style="stroke:#181818;stroke-width:0.5;" width="4" x="227.9005" y="214.6"/><text fill="#000000" font-family="sans-serif" font-size="14" font-style="italic" lengthAdjust="spacing" textLength="71.2373" x="95.3766" y="236.5951">&#171;process&#187;</text><text fill="#000000" font-family="sans-serif" font-size="14" lengthAdjust="spacing" textLength="187.8105" x="37.09" y="252.892">tivis_data_sync_server.exe</text></g><!--link tivis_statistical_analyzer to tivis_data_sync_server.exe--><g id="link_tivis_statistical_analyzer_tivis_data_sync_server.exe"><path d="M136,103.88 C136,132.37 136,168.61 136,197.15 " fill="none" id="tivis_statistical_analyzer-to-tivis_data_sync_server.exe" style="stroke:#181818;stroke-width:1;"/><polygon fill="#181818" points="136,203.15,140,194.15,136,198.15,132,194.15,136,203.15" style="stroke:#181818;stroke-width:1;"/><text fill="#000000" font-family="sans-serif" font-size="13" lengthAdjust="spacing" textLength="82.2784" x="137" y="148.6669">&#21551;&#21160;&#65288;start&#65289;</text></g><!--SRC=[AqXCpavCJrLGyatCp5C8ACfFJYqkLbAevb80WkYIpBBCulZYaiIIpEAIpEJ4dFZ4lCISoghKebW56vi2Y6exEwvQBgu2c47E6PavAJXCIaaiIOmlhinBZYzEBIfBBT9BhKZ5C0clhRgwTlWDir9uEc7zqwuLx_Tq04qeAdc_fnC0]--></g></svg>